<?xml version="1.0" encoding="UTF-8"?>
<svg xmlns="http://www.w3.org/2000/svg" version="1.1" xmlns:xlink="http://www.w3.org/1999/xlink" viewBox="0 0 50 50">
  <!-- Generator: Adobe Illustrator 29.6.1, SVG Export Plug-In . SVG Version: 2.1.1 Build 9)  -->
  <defs>
    <style>
      .st0 {
        fill: #fefeff;
      }

      .st1 {
        fill: url(#Gradiente_sem_nome_21);
      }

      .st2 {
        fill: url(#Gradiente_sem_nome_26);
      }

      .st3 {
        fill: #498ec8;
      }

      .st4 {
        fill: url(#Gradiente_sem_nome_23);
      }

      .st5 {
        fill: url(#Gradiente_sem_nome_25);
      }

      .st6 {
        fill: none;
      }

      .st7 {
        fill: url(#Gradiente_sem_nome_27);
      }

      .st8 {
        isolation: isolate;
      }

      .st9 {
        fill: #e8746e;
      }

      .st10 {
        fill: url(#Gradiente_sem_nome_22);
      }

      .st11 {
        fill: url(#Padrão_gerado_5);
      }

      .st12 {
        fill: #db2529;
      }

      .st13 {
        fill: url(#Gradiente_sem_nome_24);
      }

      .st14 {
        mix-blend-mode: multiply;
      }

      .st15 {
        fill: #2d6daa;
      }

      .st16 {
        fill: url(#Gradiente_sem_nome_30);
      }

      .st17 {
        fill: url(#Gradiente_sem_nome_29);
      }

      .st18 {
        fill: #225287;
      }

      .st19 {
        fill: url(#Gradiente_sem_nome_28);
      }
    </style>
    <linearGradient id="Gradiente_sem_nome_21" data-name="Gradiente sem nome 21" x1="-56103.64" y1="-72625.58" x2="-56324.69" y2="-72655.06" gradientTransform="translate(14167.5 -17915.5) scale(.25 -.25)" gradientUnits="userSpaceOnUse">
      <stop offset="0" stop-color="#4c92cb"/>
      <stop offset="1" stop-color="#2767a3"/>
    </linearGradient>
    <linearGradient id="Gradiente_sem_nome_22" data-name="Gradiente sem nome 22" x1="-56100.5" y1="-71721.52" x2="-56322.8" y2="-71739.17" gradientTransform="translate(14167.5 -17915.5) scale(.25 -.25)" gradientUnits="userSpaceOnUse">
      <stop offset=".33" stop-color="#4b92cb"/>
      <stop offset="1" stop-color="#2767a3"/>
    </linearGradient>
    <linearGradient id="Gradiente_sem_nome_23" data-name="Gradiente sem nome 23" x1="-56101.83" y1="-72053.79" x2="-56322.4" y2="-72079" gradientTransform="translate(14167.5 -17915.5) scale(.25 -.25)" gradientUnits="userSpaceOnUse">
      <stop offset=".33" stop-color="#4b92cb"/>
      <stop offset="1" stop-color="#2767a3"/>
    </linearGradient>
    <linearGradient id="Gradiente_sem_nome_24" data-name="Gradiente sem nome 24" x1="-56101.74" y1="-72565.2" x2="-56323.69" y2="-72586.83" gradientTransform="translate(14167.5 -17915.5) scale(.25 -.25)" gradientUnits="userSpaceOnUse">
      <stop offset=".33" stop-color="#4b92cb"/>
      <stop offset="1" stop-color="#2666a2"/>
    </linearGradient>
    <linearGradient id="Gradiente_sem_nome_25" data-name="Gradiente sem nome 25" x1="-56101.03" y1="-72224.17" x2="-56322.96" y2="-72246.07" gradientTransform="translate(14167.5 -17915.5) scale(.25 -.25)" gradientUnits="userSpaceOnUse">
      <stop offset=".33" stop-color="#4b92cb"/>
      <stop offset="1" stop-color="#2666a3"/>
    </linearGradient>
    <linearGradient id="Gradiente_sem_nome_26" data-name="Gradiente sem nome 26" x1="-56102.28" y1="-71797.09" x2="-56320.3" y2="-71833.22" gradientTransform="translate(14167.5 -17915.5) scale(.25 -.25)" gradientUnits="userSpaceOnUse">
      <stop offset="0" stop-color="#4e94cb"/>
      <stop offset="1" stop-color="#2666a3"/>
    </linearGradient>
    <linearGradient id="Gradiente_sem_nome_27" data-name="Gradiente sem nome 27" x1="-56101.34" y1="-71968.25" x2="-56323.27" y2="-71990.05" gradientTransform="translate(14167.5 -17915.5) scale(.25 -.25)" gradientUnits="userSpaceOnUse">
      <stop offset=".32" stop-color="#4b92cb"/>
      <stop offset="1" stop-color="#2666a3"/>
    </linearGradient>
    <linearGradient id="Gradiente_sem_nome_28" data-name="Gradiente sem nome 28" x1="-56100.31" y1="-72394.51" x2="-56323" y2="-72418.77" gradientTransform="translate(14167.5 -17915.5) scale(.25 -.25)" gradientUnits="userSpaceOnUse">
      <stop offset=".33" stop-color="#4b92cb"/>
      <stop offset="1" stop-color="#2767a3"/>
    </linearGradient>
    <linearGradient id="Gradiente_sem_nome_29" data-name="Gradiente sem nome 29" x1="-56100.08" y1="-72138.4" x2="-56322.53" y2="-72164.72" gradientTransform="translate(14167.5 -17915.5) scale(.25 -.25)" gradientUnits="userSpaceOnUse">
      <stop offset=".33" stop-color="#4b92cb"/>
      <stop offset="1" stop-color="#2767a4"/>
    </linearGradient>
    <linearGradient id="Gradiente_sem_nome_30" data-name="Gradiente sem nome 30" x1="-56100.1" y1="-71882.67" x2="-56322.81" y2="-71906.65" gradientTransform="translate(14167.5 -17915.5) scale(.25 -.25)" gradientUnits="userSpaceOnUse">
      <stop offset="0" stop-color="#4d94cc"/>
      <stop offset="1" stop-color="#2868a4"/>
    </linearGradient>
    <pattern id="Padrão_gerado_5" data-name="Padrão gerado 5" x="0" y="0" width="256" height="256" patternUnits="userSpaceOnUse" viewBox="0 0 256 256">
      <g>
        <rect class="st6" width="256" height="256"/>
        <path class="st12" d="M204.5,0c4.41,10.55,16.93,14.75,27.62,13.75.23-.02,2.56-.17,2.25-.75-9.19-1.98-18.31-6.9-25.38-13h47v256h-47.5l-7.38-8.75,3.12,8.75h-4V0h4.25ZM200.88,12c3.44,16.69,16.99,25.61,33.88,22.62-13-3.67-26.68-10.82-33.88-22.62ZM201.12,34c3.35,16.24,17.37,25.18,33.62,21.88-12.98-3.36-25.96-10.64-33.62-21.88ZM201.12,55.25c3.21,16.35,17.09,24.88,33.38,22.12-12.86-3.96-25.86-10.59-33.38-22.12ZM201.12,76.5c3.18,16.47,17.32,25.12,33.62,22.12-12.9-3.62-26.23-10.65-33.62-22.12ZM201.12,98c3.34,16.25,17.38,25.17,33.62,21.88-12.98-3.36-25.94-10.66-33.62-21.88ZM201.12,119.25c3.2,16.34,17.1,24.89,33.38,22.12-12.86-3.94-25.88-10.58-33.38-22.12ZM200.88,140.25c3.64,16.6,17.15,25.37,33.88,22.38-13.16-3.66-26.25-10.76-33.88-22.38ZM201.12,162c3.42,16.34,17.05,24.75,33.38,22.12-12.8-4.12-25.7-10.66-33.38-22.12ZM201.12,183.25c3.21,16.34,17.09,24.9,33.38,22.12-12.87-3.94-25.86-10.59-33.38-22.12ZM200.88,204c3.4,16.69,17.1,25.66,33.88,22.62-12.97-3.67-26.67-10.79-33.88-22.62ZM201.12,226c3.47,16.4,16.96,24.69,33.38,22.12-12.86-4.11-25.66-10.66-33.38-22.12Z"/>
        <rect class="st12" width="8.25" height="256"/>
        <g>
          <path class="st18" d="M12.5,0c4.89,11.51,18.37,15.01,29.88,13.5-1.66-1.03-4.4-1.44-6.5-2.25-6.56-2.53-13.62-6.62-18.88-11.25h67.25l-11.25,15.88c3.85-3.71,7.39-7.67,11.5-11.12l.5,15.75c-4.9,5.12-8.51,11.73-12.75,17.38,4.12-3.77,7.68-8.03,12-11.62l-.25,16.75c-4.31,4.71-7.89,10.86-11.5,16.12l12-11.62c-.06,4.36-.4,9.02-.25,13.38.01.29.21,2.3.75,2.38-4.63,4.82-8.29,11.24-12.25,16.62.07.67.29.38.62.12,3.15-2.39,7.34-8.11,11.12-11.25l.25,16c-4.79,5.06-8.3,11.59-12.5,17.12,4.13-3.77,7.68-8.04,12-11.62l-.25,16.75c-4.31,4.71-7.89,10.86-11.5,16.12,3.93-4.03,7.63-8.06,12-11.62l.25,16c-4.72,4.98-8.43,11.61-12.5,17.12,4.18-3.88,7.84-8.21,12.25-11.88l-.25,14.12,1.25,1.12c-5.06,5.14-8.92,12.12-13.25,17.88,4.14-3.76,7.68-8.03,12-11.62l.25,14.62c1.05,1.56,1.61-1.39,3-1.38-5.97,5.28-10.32,12.99-15,19.38l12-11.38c-.31.66-.43,13.04-.25,14.62.02.13.3,1.35.75,1.12-4.63,4.82-8.29,11.24-12.25,16.62-.12.53.53.19.62.12,2.37-1.61,7.88-8.55,11.12-11.25l.75,15.5c-4.92,5.08-8.75,11.97-13,17.62,4.14-3.76,7.68-8.04,12-11.62l-.25,16.75c-4.28,4.67-7.9,10.89-11.5,16.12,3.85-4.08,7.4-7.82,11.75-11.38l.75,15.5c-.17.17-.38.53-.5.75H16.5l-7.62-9.25,3.38,9.25h-4V0h4.25ZM9,12.5c1.31,3.75,2.39,7.72,4.5,11.12,6.11,9.83,18.3,12.73,29.25,11-11.2-3.06-23.43-9.28-31-18.25-1.01-1.19-1.77-2.65-2.75-3.88-.04-.05.02-.6-.38-.75-.46.44.36.71.38.75ZM8.62,33.25c1.67,3.82,2.66,8.05,4.88,11.62,6.19,9.99,18.16,12.75,29.25,11.25-13.27-3.99-26.46-10.93-34.12-22.88ZM8.88,54.75c3.45,16.6,16.83,25.41,33.62,22.62-12.99-4.01-26.25-10.73-33.62-22.62ZM8.62,75.75c1.54,3.95,2.61,8.24,4.88,11.88,6.06,9.73,18.42,12.79,29.25,11-13.2-3.65-26.77-10.93-34.12-22.88ZM8.62,97.25c1.67,3.82,2.66,8.05,4.88,11.62,6.14,9.9,17.98,12.74,29,11.25-13.13-4.18-26.26-10.95-33.88-22.88ZM8.88,118.75c3.44,16.62,16.83,25.4,33.62,22.62-12.97-4.01-26.28-10.74-33.62-22.62ZM9,140.5c5.47,17.42,14.81,24.34,33.75,22.12-11.22-3.06-23.42-9.26-31-18.25-1.01-1.19-1.77-2.65-2.75-3.88-.04-.05.02-.6-.38-.75-.45.44.36.71.38.75ZM9.12,161.75c3.15,16.65,17.18,25.01,33.62,22.38-12.93-4.04-26.2-10.52-33.62-22.38ZM8.88,182.75c3.44,16.6,16.83,25.42,33.62,22.62-12.98-4.01-26.26-10.74-33.62-22.62ZM9,204.5c1.51,4.81,3.19,9.97,6.5,13.88,6.51,7.67,17.7,9.81,27.25,8.25-11.23-3.07-23.4-9.24-31-18.25-1.01-1.19-1.77-2.65-2.75-3.88-.04-.05.02-.6-.38-.75-.45.44.36.71.38.75ZM8.88,225.25c3.2,16.73,17.14,25.95,33.88,22.62-13.02-3.44-26.77-10.75-33.88-22.62Z"/>
          <path class="st0" d="M148.75,0c2.69,2.89,6.74,5.47,10.38,7,1.37.58,10.05,3.47,11,3.5.41.01.94-.05.5-.5-6.22-1.81-12.09-5.63-16.88-10h46.5v256h-46.75c-2.2-.75-8.8-11.02-9.5-11.25l.38-15.25c5.59,9.16,15.97,13.54,26.12,15.38-8.04-2.89-15.15-8.08-21-14.25-1.92-2.03-3.33-4.65-5.25-6.62l.12-15.75c4.69,7.45,12.72,11.85,21,14.25,1.39.4,3.7,1.03,5.12.88-10.87-3.7-20.69-11.74-26.5-21.62l.38-14.75c5.91,8.99,16.16,13.35,26.38,15.38-10.75-4.24-20.55-11.61-26.5-21.62l.12-15.25c5.69,9.35,16.2,13.29,26.38,15.62-5.57-2.37-10.94-5.25-15.62-9.12-2.9-2.39-10.16-9.68-10.88-13-.93-4.32.02-10.29.12-14.75,5.7,9.1,16.18,13.5,26.38,15.38-5.61-2.11-10.99-5.06-15.62-8.88-2.89-2.37-10.17-9.7-10.88-13l.12-14.75c5.9,9.01,16.17,13.33,26.38,15.38-10.76-4.24-20.54-11.62-26.5-21.62l.12-15.25c5.69,9.36,16.2,13.29,26.38,15.62-5.56-2.36-10.95-5.26-15.62-9.12-2.88-2.38-10.17-9.71-10.88-13-.99-4.61.09-10.08.12-14.75,5.73,9.09,16.17,13.5,26.38,15.38-10.96-4.05-20.82-11.74-26.75-21.88l.38-14.75c5.91,8.99,16.17,13.34,26.38,15.38-5.85-2.42-11.55-5.49-16.38-9.62-2.68-2.3-9.46-9.34-10.12-12.5l.12-14.75c5.71,9.33,16.19,13.3,26.38,15.62-11.36-4.26-19.28-11.67-26.5-21.12-.02-.33.03-.67,0-1-.39-4.88-.49-9.89.12-14.75,5.71,9.06,16.21,13.46,26.38,15.38-8.6-3.17-16.93-8.89-22.75-16-.97-1.19-3.34-4.04-3.75-5.38-.85-2.79.12-7.26-.25-10.25h4.75Z"/>
          <path class="st1" d="M143.5,244.75c.15-.02.4-.03.5,0,.7.23,7.3,10.5,9.5,11.25h-5l-4.12-5-.38,5h-7.25c-12.94-17.35-37.4-15.25-51.75-.75l-.75-15.5c19.17-15.7,40.13-15.47,57.25,3.12.17.19,1.34,2.77,1.88,2.62.23-.06.09-.75.12-.75Z"/>
          <path class="st10" d="M132.25,0l11,10.25c.59.74.3,1.3,1,0,.41,1.33,2.78,4.18,3.75,5.38,5.82,7.11,14.15,12.83,22.75,16-10.17-1.92-20.66-6.31-26.38-15.38-.61,4.86-.51,9.87-.12,14.75l-1.5-.25c-1.57-2.19-2.81-5.52-4.5-7.88-12.96-18.06-38.36-17.92-53.25-2.38l-.5-15.75c1.96-1.65,4.02-3.13,6-4.75h41.75Z"/>
          <path class="st0" d="M136.75,256h-5c-11.86-8.62-28.75-8.07-40.75,0h-6.5c.12-.22.33-.58.5-.75,14.35-14.5,38.81-16.6,51.75.75Z"/>
          <path class="st3" d="M131.75,256h-40.75c12-8.07,28.89-8.62,40.75,0Z"/>
          <path class="st3" d="M17,0c5.25,4.63,12.32,8.72,18.88,11.25,2.1.81,4.84,1.22,6.5,2.25-11.51,1.51-24.98-1.99-29.88-13.5h4.5Z"/>
          <path class="st9" d="M209,0c7.06,6.1,16.18,11.02,25.38,13,.31.58-2.02.73-2.25.75-10.7,1-23.21-3.2-27.62-13.75h4.5Z"/>
          <path class="st0" d="M90.5,0c-1.98,1.62-4.04,3.1-6,4.75-4.11,3.46-7.65,7.42-11.5,11.12L84.25,0h6.25Z"/>
          <path class="st3" d="M153.75,0c4.78,4.37,10.66,8.19,16.88,10,.44.45-.09.51-.5.5-.95-.03-9.63-2.92-11-3.5-3.64-1.53-7.68-4.11-10.38-7h5Z"/>
          <path class="st3" d="M144,0c.37,2.99-.6,7.46.25,10.25-.7,1.3-.41.74-1,0-2.17-2.71-3.66-7.52-6.25-10.25h7Z"/>
          <path class="st0" d="M137,0c2.59,2.73,4.08,7.54,6.25,10.25l-11-10.25h4.75Z"/>
          <polygon class="st3" points="16.5 256 12.25 256 8.88 246.75 16.5 256"/>
          <polygon class="st9" points="208.5 256 204.25 256 201.12 247.25 208.5 256"/>
          <polygon class="st0" points="148.5 256 144 256 144.38 251 148.5 256"/>
          <path class="st4" d="M142.75,94.75l1.5.25c.7,3.29,7.99,10.62,10.88,13,4.68,3.87,10.06,6.77,15.62,9.12-10.18-2.34-20.69-6.26-26.38-15.62l-.12,15.25-.38,1c-.21-.22,0-.35-.38-.5-5.28-10.57-12.75-20.15-25.12-22.25-13.04-2.21-25.58,2.37-34.38,12l.25-16.75c19.8-16.43,42.95-14.7,58.88,5.75.87-.16-.21-.92-.38-1.25Z"/>
          <path class="st13" d="M143.5,223.75c.79.81.72.22.75.25,1.92,1.97,3.33,4.6,5.25,6.62,5.85,6.17,12.96,11.36,21,14.25-10.16-1.84-20.53-6.21-26.12-15.38l-.38,15.25c-.1-.03-.35-.02-.5,0-2.38-2.97-3.83-6.77-6.25-9.88-13.75-17.67-38.86-15.58-53.25.12l.25-16.75c9.34-7.76,18.86-12.09,31.38-11,11.85,1.03,20.49,8.92,27.88,16.5Z"/>
          <path class="st5" d="M143,138.5s-.56.67.38.75c.32-.27-.22-1.63.88-1.5.71,3.3,7.99,10.63,10.88,13,4.64,3.81,10.02,6.76,15.62,8.88-10.19-1.88-20.68-6.28-26.38-15.38-.11,4.46-1.05,10.43-.12,14.75-.51-.1-.42.2-.75.5-2.47-3.38-4.11-7.35-6.75-10.62-12.94-16.04-37.3-15.03-51.25-.88l-1.25-1.12.25-14.12c19.2-15.97,43.29-14.91,58.5,5.75Z"/>
          <path class="st2" d="M143.25,31.5c.78,1.07.96.44,1,.5,7.22,9.46,15.14,16.86,26.5,21.12-10.18-2.32-20.67-6.29-26.38-15.62l-.12,14.75-1.25.25c-10.07-25.58-41.04-29.14-59-9.5l.25-16.75c19.65-16.33,42.26-14.88,58.38,5.25.17.21.68.88.62,0Z"/>
          <path class="st7" d="M143,74.5s-.56.67.38.75l.62-1.5c5.93,10.14,15.79,17.82,26.75,21.88-10.21-1.88-20.65-6.29-26.38-15.38-.03,4.67-1.11,10.14-.12,14.75l-1.5-.25c-11.8-23.94-39.2-29.88-58-10l-.25-16c19.14-15.9,43.36-14.93,58.5,5.75Z"/>
          <path class="st19" d="M143.5,181.25c.24.04.35.26.38.25.26-.07-.07-.75.38-.75,5.95,10.01,15.75,17.39,26.5,21.62-10.21-2.02-20.47-6.39-26.38-15.38l-.38,14.75-.62,1.5c-.63.1-.55-.65-.62-.75l-1.25-3.62c-10.9-22.66-39.54-25.27-56.5-7.62-.45.23-.73-.99-.75-1.12-.18-1.58-.06-13.96.25-14.62,19.48-16.45,39.71-14.17,57,3.62.78.8.73,1.93,2,2.12Z"/>
          <path class="st17" d="M143.5,117.25c.38.15.16.28.38.5l.38-1c5.96,10.01,15.74,17.39,26.5,21.62-10.21-2.04-20.48-6.37-26.38-15.38l-.12,14.75c-1.1-.13-.55,1.23-.88,1.5-.94-.08-.34-.7-.38-.75-9.15-25.51-39.97-30.27-58.25-11l-.25-16c19.55-15.93,39.36-14.79,56.75,3.38.98,1.03.81,1.8,2.25,2.38Z"/>
          <path class="st16" d="M143,52.5l1.25-.25c.67,3.16,7.44,10.2,10.12,12.5,4.83,4.14,10.53,7.21,16.38,9.62-10.21-2.03-20.47-6.38-26.38-15.38l-.38,14.75-.62,1.5c-.94-.08-.34-.7-.38-.75-9.06-25.3-39.69-30.31-58-11.25-.54-.08-.74-2.08-.75-2.38-.15-4.35.19-9.02.25-13.38,18.31-16.06,40.86-14.4,57,3.62.33.36,1.47,2.8,2,2-.21-.2-.39-.34-.5-.62Z"/>
          <path class="st0" d="M142.75,94.75c.16.33,1.25,1.09.38,1.25-15.92-20.45-39.07-22.18-58.88-5.75-4.32,3.59-7.87,7.86-12,11.62,4.2-5.53,7.71-12.07,12.5-17.12,18.8-19.88,46.2-13.94,58,10Z"/>
          <path class="st0" d="M142.75,30.75c.17.23.33.52.5.75.05.88-.45.21-.62,0-16.11-20.13-38.72-21.58-58.38-5.25-4.32,3.59-7.88,7.85-12,11.62,4.24-5.65,7.85-12.26,12.75-17.38,14.89-15.55,40.29-15.69,53.25,2.38,1.69,2.36,2.93,5.68,4.5,7.88Z"/>
          <path class="st0" d="M143.5,159.5s.16.61-.38.5c-10.47-13.95-27.08-20.58-44.12-14.75-2.18.74-4.01,1.9-6,3-3.31,1.83-5.84,3.59-8.75,6-4.32,3.59-7.86,7.86-12,11.62,4.33-5.75,8.19-12.74,13.25-17.88,13.95-14.16,38.31-15.16,51.25.88,2.64,3.27,4.28,7.25,6.75,10.62Z"/>
          <path class="st0" d="M114.75,201.25c14.26.94,22.64,10.58,28.75,22.5-7.38-7.58-16.02-15.47-27.88-16.5-12.52-1.09-22.03,3.24-31.38,11-4.32,3.59-7.86,7.87-12,11.62,4.25-5.65,8.08-12.54,13-17.62,2.39-2.47,5.5-4.83,8.5-6.5,6.49-3.6,13.54-4.99,21-4.5Z"/>
          <path class="st0" d="M116,158.75c13.91,1.46,21.6,10.76,27.5,22.5-1.27-.2-1.22-1.32-2-2.12-17.29-17.8-37.52-20.07-57-3.62l-12,11.38c4.68-6.38,9.03-14.1,15-19.38,1.78-1.57,4.66-3.65,6.75-4.75,6.58-3.45,14.34-4.78,21.75-4Z"/>
          <path class="st0" d="M143.5,117.25c-1.44-.58-1.27-1.35-2.25-2.38-17.39-18.17-37.2-19.31-56.75-3.38-4.37,3.56-8.07,7.6-12,11.62,3.61-5.27,7.19-11.42,11.5-16.12,8.8-9.63,21.33-14.21,34.38-12,12.37,2.1,19.84,11.68,25.12,22.25Z"/>
          <path class="st0" d="M143,52.5c.11.28.29.43.5.62-.53.8-1.67-1.64-2-2-16.14-18.03-38.69-19.69-57-3.62l-12,11.62c3.61-5.27,7.19-11.42,11.5-16.12,17.96-19.64,48.93-16.08,59,9.5Z"/>
          <path class="st0" d="M143.5,244.75s.11.69-.12.75c-.53.15-1.7-2.44-1.88-2.62-17.12-18.59-38.08-18.83-57.25-3.12-4.35,3.56-7.9,7.29-11.75,11.38,3.6-5.23,7.22-11.45,11.5-16.12,14.39-15.71,39.5-17.8,53.25-.12,2.42,3.11,3.87,6.9,6.25,9.88Z"/>
          <path class="st0" d="M143,74.5c-15.14-20.68-39.36-21.65-58.5-5.75-3.78,3.14-7.98,8.86-11.12,11.25-.33.25-.55.55-.62-.12,3.96-5.38,7.62-11.81,12.25-16.62,18.31-19.06,48.94-14.05,58,11.25Z"/>
          <path class="st0" d="M143,138.5c-15.21-20.66-39.3-21.72-58.5-5.75-4.41,3.67-8.07,7.99-12.25,11.88,4.07-5.52,7.78-12.15,12.5-17.12,18.28-19.27,49.1-14.51,58.25,11Z"/>
          <path class="st0" d="M142.75,202.5c-10.45-14.02-26.04-20.33-43.25-14.75-2.43.79-4.54,2.02-6.75,3.25-3.18,1.77-5.45,3.42-8.25,5.75-3.25,2.7-8.75,9.64-11.12,11.25-.1.07-.75.4-.62-.12,3.96-5.38,7.62-11.81,12.25-16.62,16.96-17.65,45.6-15.03,56.5,7.62l1.25,3.62Z"/>
          <path class="st3" d="M8.88,225.25c7.11,11.88,20.85,19.18,33.88,22.62-16.73,3.32-30.68-5.9-33.88-22.62Z"/>
          <path class="st3" d="M8.62,97.25c7.61,11.92,20.74,18.69,33.88,22.88-11.02,1.49-22.86-1.35-29-11.25-2.22-3.58-3.21-7.81-4.88-11.62Z"/>
          <path class="st3" d="M8.62,33.25c7.67,11.95,20.85,18.89,34.12,22.88-11.09,1.5-23.06-1.26-29.25-11.25-2.22-3.58-3.21-7.81-4.88-11.62Z"/>
          <path class="st3" d="M9.12,161.75c7.42,11.85,20.7,18.33,33.62,22.38-16.44,2.64-30.47-5.72-33.62-22.38Z"/>
          <path class="st3" d="M8.88,182.75c7.36,11.88,20.65,18.61,33.62,22.62-16.79,2.8-30.18-6.02-33.62-22.62Z"/>
          <path class="st3" d="M8.62,75.75c7.36,11.94,20.93,19.23,34.12,22.88-10.83,1.79-23.19-1.27-29.25-11-2.26-3.63-3.33-7.92-4.88-11.88Z"/>
          <path class="st3" d="M9,12.5c.98,1.22,1.74,2.68,2.75,3.88,7.57,8.97,19.8,15.19,31,18.25-10.95,1.73-23.14-1.17-29.25-11-2.11-3.4-3.19-7.38-4.5-11.12Z"/>
          <path class="st3" d="M8.88,118.75c7.35,11.88,20.66,18.61,33.62,22.62-16.8,2.77-30.18-6.01-33.62-22.62Z"/>
          <path class="st3" d="M9,204.5c.98,1.22,1.74,2.68,2.75,3.88,7.6,9.01,19.77,15.18,31,18.25-9.55,1.56-20.74-.58-27.25-8.25-3.31-3.9-4.99-9.06-6.5-13.88Z"/>
          <path class="st3" d="M9,140.5c.98,1.22,1.74,2.68,2.75,3.88,7.58,8.99,19.78,15.19,31,18.25-18.94,2.21-28.28-4.71-33.75-22.12Z"/>
          <path class="st3" d="M8.88,54.75c7.37,11.9,20.64,18.61,33.62,22.62-16.79,2.78-30.18-6.02-33.62-22.62Z"/>
          <path class="st15" d="M92.75,191c.81,3.97.41,8.76,1,12.62.25,1.64,1.7.03,0,2.12-3,1.67-6.11,4.03-8.5,6.5l-.75-15.5c2.8-2.33,5.07-3.98,8.25-5.75Z"/>
          <path class="st15" d="M93,148.25l1.25,14.5c-2.09,1.1-4.97,3.18-6.75,4.75-1.39-.01-1.95,2.94-3,1.38l-.25-14.62c2.91-2.41,5.44-4.17,8.75-6Z"/>
          <path class="st3" d="M9,12.5s-.83-.31-.38-.75c.39.15.34.7.38.75Z"/>
          <path class="st3" d="M9,140.5s-.83-.31-.38-.75c.39.15.34.7.38.75Z"/>
          <path class="st3" d="M9,204.5s-.83-.31-.38-.75c.39.15.34.7.38.75Z"/>
          <path class="st3" d="M142.75,202.5c.07.1,0,.85.62.75l.62-1.5c5.81,9.88,15.63,17.93,26.5,21.62-1.43.16-3.74-.47-5.12-.88-8.28-2.4-16.31-6.8-21-14.25l-.12,15.75s.04.56-.75-.25c-6.11-11.92-14.49-21.56-28.75-22.5.25-.41.97-.4-.12-.5-1.63-.15-4.36-.13-6,0-2.18.17-7.44,2.51-7.38-1.12.04-2.15.45-5.89.25-8-.16-1.71-.89-2.73-2-3.88,17.21-5.58,32.8.73,43.25,14.75Z"/>
          <path class="st3" d="M143.5,159.5c.33-.3.24-.6.75-.5.71,3.32,7.98,10.61,10.88,13,4.69,3.87,10.06,6.75,15.62,9.12-10.17-2.34-20.69-6.28-26.38-15.62l-.12,15.25c-.44,0-.11.68-.38.75-.02,0-.13-.21-.38-.25-5.9-11.74-13.59-21.04-27.5-22.5.26-.41.97-.4-.12-.5-1.89-.18-3.85-.36-5.75-.25-1.64.09-7.62,1.65-8.5.75-.43-.44.24-11.65-.12-12.38s-2.49.21-2.5-1.12c17.05-5.83,33.66.8,44.12,14.75.54.11.33-.46.38-.5Z"/>
          <path class="st3" d="M144.25,31c.03.33-.02.67,0,1-.04-.06-.22.57-1-.5-.17-.23-.33-.52-.5-.75l1.5.25Z"/>
          <path class="st9" d="M201.12,98c7.68,11.22,20.65,18.52,33.62,21.88-16.24,3.29-30.29-5.63-33.62-21.88Z"/>
          <path class="st9" d="M201.12,34c7.66,11.24,20.65,18.51,33.62,21.88-16.25,3.31-30.27-5.64-33.62-21.88Z"/>
          <path class="st9" d="M201.12,162c7.68,11.47,20.58,18,33.38,22.12-16.32,2.63-29.96-5.79-33.38-22.12Z"/>
          <path class="st9" d="M200.88,204c7.2,11.83,20.9,18.95,33.88,22.62-16.78,3.04-30.48-5.93-33.88-22.62Z"/>
          <path class="st9" d="M201.12,226c7.71,11.47,20.51,18.01,33.38,22.12-16.42,2.56-29.9-5.73-33.38-22.12Z"/>
          <path class="st9" d="M200.88,140.25c7.62,11.61,20.72,18.72,33.88,22.38-16.73,2.99-30.23-5.78-33.88-22.38Z"/>
          <path class="st9" d="M201.12,76.5c7.39,11.48,20.73,18.51,33.62,22.12-16.3,2.99-30.44-5.66-33.62-22.12Z"/>
          <path class="st9" d="M200.88,12c7.19,11.8,20.87,18.96,33.88,22.62-16.89,2.99-30.43-5.93-33.88-22.62Z"/>
          <path class="st9" d="M201.12,55.25c7.52,11.53,20.52,18.17,33.38,22.12-16.28,2.75-30.16-5.78-33.38-22.12Z"/>
          <path class="st9" d="M201.12,183.25c7.51,11.54,20.51,18.19,33.38,22.12-16.28,2.77-30.16-5.79-33.38-22.12Z"/>
          <path class="st9" d="M201.12,119.25c7.5,11.55,20.51,18.19,33.38,22.12-16.28,2.76-30.17-5.78-33.38-22.12Z"/>
          <path class="st3" d="M116,158.75c-7.41-.78-15.17.55-21.75,4l-1.25-14.5c1.99-1.1,3.82-2.26,6-3,.01,1.33,2.13.4,2.5,1.12s-.31,11.93.12,12.38c.88.9,6.86-.66,8.5-.75,1.9-.11,3.86.07,5.75.25,1.09.1.38.09.12.5Z"/>
          <path class="st3" d="M114.75,201.25c-7.46-.49-14.51.9-21,4.5,1.7-2.09.25-.49,0-2.12-.59-3.86-.19-8.66-1-12.62,2.21-1.23,4.32-2.46,6.75-3.25,1.11,1.14,1.84,2.16,2,3.88.2,2.11-.21,5.85-.25,8-.06,3.63,5.19,1.29,7.38,1.12,1.64-.13,4.37-.15,6,0,1.09.1.38.09.12.5Z"/>
        </g>
      </g>
    </pattern>
  </defs>
  <g class="st8">
    <g id="Camada_1">
      <g class="st14">
        <path class="st11" d="M38.88.26c-.49-.1-.99-.18-1.48-.26H12.58c-.7.13-1.41.22-2.1.41C4.96,1.96,1.55,5.54.24,11.12c-.11.49-.18.98-.26,1.48v24.8c.13.7.22,1.41.41,2.09,1.55,5.52,5.13,8.94,10.71,10.23.89.21,1.84.26,2.76.27,7.42.02,14.85.02,22.27,0,6.68,0,12.29-4.6,13.6-11.13.18-.89.25-1.81.26-2.71.02-7.44.02-14.87,0-22.31-.01-6.65-4.6-12.23-11.11-13.57ZM39.17,45.06c-1.08.36-2.18.49-3.31.48-3.63,0-7.26,0-10.89,0v-.02c-3.89,0-7.78.04-11.67-.01-3.56-.05-6.98-2.57-8.23-5.91-.44-1.17-.63-2.38-.63-3.63,0-7.31.04-14.62-.01-21.92-.03-4.44,2.81-7.92,6.38-9.1,1.05-.35,2.12-.48,3.21-.48,7.31,0,14.62.03,21.93-.01,4.41-.03,7.91,2.77,9.11,6.38.35,1.05.48,2.12.48,3.21,0,7.31-.03,14.62.01,21.92.03,4.42-2.78,7.91-6.38,9.11ZM25.01,12.11c-7.09-.01-12.89,5.76-12.91,12.85-.02,7.11,5.78,12.92,12.89,12.92,7.09,0,12.88-5.79,12.89-12.88,0-7.09-5.78-12.88-12.87-12.89ZM24.98,33.42c-4.67,0-8.44-3.77-8.43-8.43.01-4.68,3.78-8.43,8.45-8.41,4.66.02,8.39,3.75,8.4,8.41.01,4.67-3.75,8.43-8.43,8.43ZM38.41,8.35c-1.76,0-3.23,1.46-3.26,3.23-.02,1.78,1.45,3.27,3.24,3.28,1.8,0,3.28-1.45,3.28-3.24,0-1.77-1.5-3.27-3.27-3.26Z"/>
      </g>
    </g>
  </g>
</svg>