<?xml version="1.0" encoding="UTF-8"?>
<svg xmlns="http://www.w3.org/2000/svg" version="1.1" xmlns:xlink="http://www.w3.org/1999/xlink" viewBox="0 0 50 50">
  <!-- Generator: Adobe Illustrator 29.6.1, SVG Export Plug-In . SVG Version: 2.1.1 Build 9)  -->
  <defs>
    <style>
      .st0 {
        fill: url(#Padrão_gerado_4);
      }

      .st1 {
        fill: #e52629;
      }

      .st2 {
        fill: none;
      }

      .st3 {
        fill: #1d3e91;
      }

      .st4 {
        isolation: isolate;
      }

      .st5 {
        mix-blend-mode: multiply;
      }

      .st6 {
        fill: #6aa1d7;
      }

      .st7 {
        fill: #d11934;
      }
    </style>
    <pattern id="Padrão_gerado_4" data-name="Padrão gerado 4" x="0" y="0" width="256" height="256" patternUnits="userSpaceOnUse" viewBox="0 0 256 256">
      <g>
        <rect class="st2" width="256" height="256"/>
        <path class="st3" d="M118,0c5.48,1.56,12,1.38,17.5,0h120.5v7.75c-7.24-4.61-16.28-4.57-23.62-.25s-33.2,38.68-38.88,47.38c-9.29,14.24-6.36,25.85,1.75,39.75,12.25,20.99,34.77,40.26,60.75,32.12v9c-14.7-8.6-25.18-.95-34.5,10.38-8.48,10.3-19.56,24.55-27,35.5-9.83,14.47-8.35,25.16,0,40,8.73,15.54,22.66,30.09,40.5,34.38h-99.25l2.88-.5c15.65-5.12,28.19-18.07,36.62-31.88,17.74-29.03,3.51-38.2-13.25-60-10.31-13.41-21.89-36.88-43.12-30.12-14.73,4.69-32.29,39.12-43.88,50.38-8.48,13.65-5.48,25.09,2,38.25,8.72,15.34,21.95,28.82,39.25,33.88H0v-1.25c11.28-3.42,20.73-11.8,28-20.88,9.54-11.91,20.59-29.84,13.25-45.25-10.54-14.46-21.37-31.75-33-45.25-2.45-2.85-5.08-5.58-8.25-7.62v-9.25c14.05-4.19,25.31-16.26,33.25-28.12,10.74-16.04,15-28.13,3.5-45.25-7.47-11.12-19.79-27.67-28.5-37.75-2.39-2.76-4.98-5.66-8.25-7.38V0h118ZM123.38,4.5c-13.92,1.47-23.82,19.95-31.62,30.12-16.25,21.17-30.95,30.81-14.5,59.25,26.44,45.72,69.91,47.17,97.75,1.75,16.57-27.02,6.11-35.71-10-57-9.95-13.16-23.03-36.09-41.62-34.12Z"/>
        <g>
          <path class="st6" d="M0,254.75v-119c3.17,2.05,5.8,4.78,8.25,7.62,11.63,13.5,22.46,30.79,33,45.25,7.34,15.41-3.71,33.34-13.25,45.25-7.27,9.08-16.72,17.45-28,20.88Z"/>
          <path class="st6" d="M0,126.5V8c3.27,1.72,5.86,4.61,8.25,7.38,8.71,10.08,21.03,26.63,28.5,37.75,11.5,17.12,7.24,29.21-3.5,45.25-7.94,11.86-19.2,23.94-33.25,28.12Z"/>
        </g>
        <path class="st7" d="M135.5,0c-5.5,1.38-12.02,1.56-17.5,0h17.5Z"/>
        <path class="st6" d="M250.5,0h-13.75,13.75Z"/>
        <g>
          <path class="st1" d="M135.75,256h-19.5c-17.3-5.06-30.53-18.53-39.25-33.88-7.48-13.16-10.48-24.6-2-38.25,11.58-11.25,29.15-45.69,43.88-50.38,21.24-6.76,32.82,16.72,43.12,30.12,16.76,21.8,30.99,30.97,13.25,60-8.43,13.8-20.98,26.75-36.62,31.88l-2.88.5Z"/>
          <g>
            <path class="st6" d="M256,135.75v119l-3.5,1.25h-17.5c-17.84-4.28-31.77-18.84-40.5-34.38-8.35-14.84-9.83-25.53,0-40,7.44-10.95,18.52-25.2,27-35.5,9.32-11.33,19.8-18.97,34.5-10.38Z"/>
            <path class="st6" d="M256,7.75v119c-25.98,8.13-48.5-11.14-60.75-32.12-8.11-13.9-11.04-25.51-1.75-39.75,5.67-8.69,31.54-43.06,38.88-47.38s16.39-4.36,23.62.25Z"/>
            <polygon class="st3" points="256 254.75 256 256 252.5 256 256 254.75"/>
          </g>
          <path class="st1" d="M123.38,4.5c18.6-1.97,31.67,20.97,41.62,34.12,16.11,21.29,26.57,29.98,10,57-27.84,45.42-71.31,43.97-97.75-1.75-16.45-28.44-1.75-38.08,14.5-59.25,7.81-10.17,17.71-28.65,31.62-30.12Z"/>
        </g>
      </g>
    </pattern>
  </defs>
  <g class="st4">
    <g id="Camada_1">
      <g class="st5">
        <path class="st0" d="M49.99,30.51c0-4.3-1.75-7.74-5.22-10.22-3.72-2.67-8.39-3.25-12.56-.39-1.12.77-2.08,1.78-3.11,2.68v-3.82h-10.4v31.24h10.39v-.83c0-4.35,0-8.71,0-13.06,0-1.7-.04-3.41.1-5.09.17-2,1.35-3.39,3.13-4.2,1.77-.81,3.5-.55,5.06.61,1.56,1.15,2.21,2.75,2.2,4.65,0,5.69,0,11.38,0,17.07v.85h10.41v-.71c0-6.26,0-12.52,0-18.77ZM1.31,50h10.32v-31.23H1.31v31.23ZM6.5.26C3.01.28.26,2.82.23,6.49c-.02,3.59,2.75,6.23,6.23,6.26,3.46.03,6.25-2.8,6.24-6.26,0-3.42-2.76-6.25-6.21-6.23Z"/>
      </g>
    </g>
  </g>
</svg>