<?xml version="1.0" encoding="UTF-8"?>
<svg xmlns="http://www.w3.org/2000/svg" version="1.1" xmlns:xlink="http://www.w3.org/1999/xlink" viewBox="0 0 50 50">
  <!-- Generator: Adobe Illustrator 29.6.1, SVG Export Plug-In . SVG Version: 2.1.1 Build 9)  -->
  <defs>
    <style>
      .st0 {
        fill: url(#Gradiente_sem_nome_9);
      }

      .st1 {
        fill: #e83a4d;
      }

      .st2 {
        fill: #c44879;
      }

      .st3 {
        fill: url(#Gradiente_sem_nome_11);
      }

      .st4 {
        fill: #ea5465;
      }

      .st5 {
        fill: url(#Padrão_gerado_2);
      }

      .st6 {
        fill: #3164ad;
      }

      .st7 {
        fill: none;
      }

      .st8 {
        isolation: isolate;
      }

      .st9 {
        fill: url(#Gradiente_sem_nome_7);
      }

      .st10 {
        fill: #204d9d;
      }

      .st11 {
        mix-blend-mode: multiply;
      }

      .st12 {
        fill: url(#Gradiente_sem_nome_10);
      }

      .st13 {
        fill: url(#Gradiente_sem_nome_8);
      }

      .st14 {
        fill: #e6262d;
      }
    </style>
    <linearGradient id="Gradiente_sem_nome_7" data-name="Gradiente sem nome 7" x1="-56510.21" y1="-72440.45" x2="-56683.66" y2="-72624.64" gradientTransform="translate(14187.5 -17900.5) scale(.25 -.25)" gradientUnits="userSpaceOnUse">
      <stop offset="0" stop-color="#2752a1"/>
      <stop offset="1" stop-color="#3367b0"/>
    </linearGradient>
    <linearGradient id="Gradiente_sem_nome_8" data-name="Gradiente sem nome 8" x1="-56254.99" y1="-72439.39" x2="-56427.99" y2="-72625.37" gradientTransform="translate(14187.5 -17900.5) scale(.25 -.25)" gradientUnits="userSpaceOnUse">
      <stop offset="0" stop-color="#2853a1"/>
      <stop offset="1" stop-color="#3267b0"/>
    </linearGradient>
    <linearGradient id="Gradiente_sem_nome_9" data-name="Gradiente sem nome 9" x1="-55998.41" y1="-72440.42" x2="-56171.87" y2="-72624.59" gradientTransform="translate(14187.5 -17900.5) scale(.25 -.25)" gradientUnits="userSpaceOnUse">
      <stop offset="0" stop-color="#2853a1"/>
      <stop offset="1" stop-color="#3367b0"/>
    </linearGradient>
    <linearGradient id="Gradiente_sem_nome_10" data-name="Gradiente sem nome 10" x1="-55741.42" y1="-72442.53" x2="-55917.45" y2="-72624.25" gradientTransform="translate(14187.5 -17900.5) scale(.25 -.25)" gradientUnits="userSpaceOnUse">
      <stop offset="0" stop-color="#2853a1"/>
      <stop offset="1" stop-color="#3367b0"/>
    </linearGradient>
    <linearGradient id="Gradiente_sem_nome_11" data-name="Gradiente sem nome 11" x1="-56507.69" y1="-72103.99" x2="-56690.41" y2="-72277.53" gradientTransform="translate(14187.5 -17900.5) scale(.25 -.25)" gradientUnits="userSpaceOnUse">
      <stop offset="0" stop-color="#2753a1"/>
      <stop offset="1" stop-color="#3265ae"/>
    </linearGradient>
    <pattern id="Padrão_gerado_2" data-name="Padrão gerado 2" x="0" y="0" width="256" height="256" patternUnits="userSpaceOnUse" viewBox="0 0 256 256">
      <g>
        <rect class="st7" width="256" height="256"/>
        <path class="st6" d="M191.5,0c-12.77,15.24-39.06,16.14-51.5,0h51.5Z"/>
        <path class="st6" d="M127.5,0c-12.61,15.21-39.19,16.08-51.5,0h51.5Z"/>
        <path class="st6" d="M63.75,0C50.5,15.11,24.85,16.23,12,0h51.75Z"/>
        <path class="st6" d="M255.5,0c-6.75,8.32-18.29,12.34-28.88,11.75-8.62-.48-17.32-4.98-22.62-11.75h51.5Z"/>
        <path class="st14" d="M75.75,256h-11.75l6.25-12.25c.72,4.51,3.14,8.46,5.5,12.25Z"/>
        <path class="st14" d="M140,256h-12l6.25-12.25c.65,4.35,3.08,8.8,5.75,12.25Z"/>
        <path class="st14" d="M203.75,256h-11.75c2.56-3.87,4.89-7.09,5.75-11.75l6,11.75Z"/>
        <path class="st14" d="M11.75,256H0v-.5c2.96-3.38,4.98-7.44,6.25-11.75.7,4.53,3.14,8.45,5.5,12.25Z"/>
        <g>
          <path class="st14" d="M12,0c12.85,16.23,38.5,15.11,51.75,0h12.25c12.31,16.08,38.89,15.21,51.5,0h12.5c12.44,16.14,38.73,15.24,51.5,0h12.5c5.3,6.77,14,11.27,22.62,11.75,10.59.59,22.12-3.43,28.88-11.75h.5v39.25c-17.07-21.79-54.4-14.18-57.75,14.5l-2.5-8.12c-12.93-28.37-57.64-24.1-61.5,8.12l-3.5-10.12c-14.18-26.33-56.66-21.01-60.5,9.88l-3.5-9.88C52.05,17.2,10.76,22.6,6.25,53.5c0-.03-.47.08-.5-.12-.65-4.84-2.46-9.91-5.75-13.62V0h12Z"/>
          <g>
            <path class="st4" d="M256,39.25v45.5c-15.93,19.35-47.35,15.19-56.5-8.62-.2-.53-1.08-4.91-1.5-4.5-.14,1.11-.62,2.1-1,3.12.03-1.1.26-4.72,1.25-4.38-.25-5.45-.63-11.2,0-16.62,3.35-28.68,40.68-36.29,57.75-14.5Z"/>
            <path class="st1" d="M6.25,53.5c.56,5.29-.78,11.71,0,17.5-1.16,4.31-2.52,8.38-5.25,12-.27.36-.24.2-.5.75-.1.21-.28.65-.5.75v-44.75c3.29,3.71,5.1,8.79,5.75,13.62.03.21.5.1.5.12Z"/>
            <path class="st4" d="M134.25,53.75c-.7,5.84.45,12.08-.25,17.75-.77,6.24-5.86,13.98-10.62,18-18.54,15.65-48.93,5.69-53.25-18.5-.34,1.72-.76,3.36-1.38,5,.27-1.63.24-4.95,1.5-5.62-.22-5.41-.67-11.51,0-16.88,3.84-30.89,46.32-36.21,60.5-9.88l3.5,10.12Z"/>
            <path class="st4" d="M198.25,53.75c-.63,5.43-.25,11.18,0,16.62-.99-.34-1.22,3.28-1.25,4.38-10.71,28.59-49.79,29.99-61,2.62-.78-1.91-1-4.07-2-5.88.7-5.67-.45-11.91.25-17.75,3.86-32.22,48.57-36.5,61.5-8.12l2.5,8.12Z"/>
            <path class="st4" d="M70.25,53.5c-.67,5.36-.22,11.46,0,16.88-1.26.67-1.23,4-1.5,5.62-11.61,30.84-58.35,25.91-62.5-5-.78-5.79.56-12.21,0-17.5,4.51-30.9,45.8-36.3,60.5-9.88l3.5,9.88Z"/>
          </g>
        </g>
        <g>
          <path class="st10" d="M68.75,76c.62-1.64,1.03-3.28,1.38-5,4.32,24.19,34.71,34.15,53.25,18.5,4.77-4.02,9.85-11.76,10.62-18,1,1.81,1.22,3.97,2,5.88,11.21,27.37,50.29,25.96,61-2.62.38-1.02.86-2.02,1-3.12.42-.41,1.3,3.97,1.5,4.5,9.15,23.82,40.57,27.98,56.5,8.62v40.25c-15.6-21.36-53.9-14.44-57.75,13l-4.5-10.38c-14.41-24.27-55.58-18.42-59.5,10.62-1.69-3.44-2.52-7.31-4.5-10.62-14.44-24.1-55.43-18.46-59.5,10.38-1.26-1.56-1.65-4.45-2.5-6.38-12.94-29.41-58.9-23.63-61.75,8.25-1.39,15.6,1.27,31.75,16.88,38.88,19.75,9.02,42.56-1.14,47.38-22.5,4,30.95,49.93,34.97,62,6.12l2-5.62c4.14,28.69,45.32,33.8,59.75,10.12,1.96-3.21,3.01-6.86,4.25-10.38,1.27,9.34,8.53,18.76,17.12,22.5,14.08,6.13,30.9,2.76,40.62-9.25v40.25c-9.54-11.23-24.7-15.26-38.62-10-9.37,3.54-17.78,13.47-19.12,23.5-.74.19-.83-.41-1-.88-1.52-4.12-2.14-7.63-4.75-11.5-15.25-22.62-54.79-15.02-58.25,12.62-1.42-1.03-1.59-3.96-2.25-5.62-11.93-30.27-57.52-25.03-61.75,5.12l-3-7.88c-10.68-23.36-46.81-23.45-58.25-.5-3.53,7.09-3.96,21.1-2.75,28.88-1.27,4.31-3.29,8.37-6.25,11.75V84.5c.22-.1.4-.54.5-.75l.5-.75c2.73-3.62,4.09-7.69,5.25-12,4.15,30.91,50.89,35.84,62.5,5Z"/>
          <path class="st6" d="M256,125v44.75c-9.72,12.01-26.54,15.38-40.62,9.25-8.59-3.74-15.86-13.16-17.12-22.5-.63-4.61-.65-13.9,0-18.5,3.85-27.44,42.15-34.36,57.75-13Z"/>
          <path class="st9" d="M70.25,223.25c-.65,4.61-.73,15.94,0,20.5l-6.25,12.25H11.75c-2.36-3.8-4.8-7.72-5.5-12.25-1.21-7.77-.78-21.79,2.75-28.88,11.44-22.95,47.57-22.86,58.25.5l3,7.88Z"/>
          <path class="st13" d="M134.25,223.75c-.61,4.88-.72,15.19,0,20l-6.25,12.25h-52.25c-2.36-3.79-4.78-7.74-5.5-12.25s-.65-15.89,0-20.5c4.23-30.15,49.82-35.39,61.75-5.12.66,1.67.83,4.59,2.25,5.62Z"/>
          <path class="st0" d="M198.25,223.5c-.91,6.78.68,14.33-.5,20.75-.86,4.66-3.19,7.88-5.75,11.75h-52c-2.67-3.45-5.1-7.9-5.75-12.25-.72-4.81-.61-15.12,0-20,3.46-27.65,43-35.24,58.25-12.62,2.61,3.87,3.23,7.38,4.75,11.5.17.46.26,1.07,1,.88Z"/>
          <path class="st12" d="M256,210v46h-52.25l-6-11.75c1.18-6.42-.41-13.97.5-20.75,1.35-10.03,9.76-19.96,19.12-23.5,13.92-5.26,29.09-1.23,38.62,10Z"/>
          <path class="st3" d="M70.25,138c-.65,4.61-.6,13.61,0,18.25-4.82,21.36-27.63,31.52-47.38,22.5-15.61-7.13-18.27-23.28-16.88-38.88,2.85-31.88,48.81-37.66,61.75-8.25.85,1.92,1.24,4.82,2.5,6.38Z"/>
          <path class="st6" d="M198.25,138c-.65,4.6-.63,13.89,0,18.5-1.24,3.52-2.29,7.16-4.25,10.38-14.43,23.67-55.61,18.56-59.75-10.12-.66-4.55-.62-13.93,0-18.5,3.92-29.05,45.09-34.9,59.5-10.62l4.5,10.38Z"/>
          <path class="st6" d="M134.25,138.25c-.62,4.57-.66,13.95,0,18.5l-2,5.62c-12.07,28.85-58,24.82-62-6.12-.6-4.64-.65-13.64,0-18.25,4.07-28.84,45.06-34.47,59.5-10.38,1.98,3.31,2.81,7.19,4.5,10.62Z"/>
        </g>
        <path class="st2" d="M.5,83.75c.26-.55.23-.39.5-.75l-.5.75Z"/>
      </g>
    </pattern>
  </defs>
  <g class="st8">
    <g id="Camada_1">
      <g class="st11">
        <path class="st5" d="M49.43,19.94C47.47,9.8,39.3,2.02,29.11.36c-7.42-1.21-14.12.6-19.94,5.34C-.09,13.24-2.63,26.38,3.07,36.85c.29.53.36.99.19,1.58-1.01,3.49-1.98,6.98-2.97,10.48-.09.31-.15.62-.26,1.09.39-.08.64-.13.88-.19,3.67-.94,7.35-1.88,11.02-2.85.6-.16,1.11-.11,1.66.19,3.05,1.61,6.31,2.54,9.74,2.72,7,.37,13.23-1.65,18.4-6.44,6.87-6.37,9.48-14.31,7.7-23.49ZM43.32,34.59c-3.61,6.87-9.53,10.54-17.29,11.07-4.28.29-8.26-.81-11.92-3.05-.48-.29-.91-.34-1.44-.2-1.91.52-3.83,1-5.75,1.48-.24.06-.48.08-.83.14.09-.38.15-.65.22-.91.51-1.84,1.02-3.68,1.56-5.51.14-.47.08-.84-.18-1.24-2.59-3.98-3.72-8.36-3.34-13.08.35-4.4,1.93-8.35,4.82-11.68,4.72-5.43,10.72-7.95,17.89-7.26,6.56.63,11.77,3.79,15.31,9.33,4.29,6.72,4.66,13.85.95,20.91ZM36.96,30.26c-1.64-.73-3.26-1.48-4.88-2.25-.63-.3-1.1-.19-1.51.37-.57.77-1.17,1.51-1.75,2.27-.28.36-.59.58-1.08.39-3.78-1.46-6.74-3.89-8.77-7.42-.27-.47-.22-.87.14-1.27.48-.54.92-1.11,1.43-1.63.56-.58.66-1.16.32-1.9-.61-1.31-1.21-2.63-1.69-3.98-.41-1.15-1.05-1.79-2.37-1.51,0-.06,0-.12,0-.18-.55.15-1.2.17-1.62.49-1.35,1.02-2.32,2.34-2.65,4.05-.36,1.91.05,3.7.82,5.44,1.19,2.68,3.03,4.91,5.07,6.96,3.2,3.21,6.97,5.49,11.39,6.61,3.15.8,7.21-.54,7.86-5.03.1-.67-.05-1.11-.7-1.4Z"/>
      </g>
    </g>
  </g>
</svg>