<?xml version="1.0" encoding="UTF-8"?>
<svg id="Camada_2" xmlns="http://www.w3.org/2000/svg" version="1.1" viewBox="0 0 397.4 397.4">
  <!-- Generator: Adobe Illustrator 29.1.0, SVG Export Plug-In . SVG Version: 2.1.0 Build 142)  -->
  <defs>
    <style>
      .st0 {
        fill: #fff;
      }
    </style>
  </defs>
  <path class="st0" d="M198,71.4c-61.4,2-112.1,51.7-115.2,113.1-1.1,22.1,3.8,43,13.3,61.2l-13.3,59.7c-.6,2.7,1.8,5.1,4.5,4.5l59.7-13.3h0c18,9.4,38.7,14.3,60.7,13.3,61.3-2.8,111.1-53.2,113.5-114.4,2.7-69.4-53.9-126.2-123.2-124h0ZM201.9,285.3c-17.4,0-33.6-4.7-47.6-12.9-1.3-.7-2.6-1.5-3.8-2.4l-38.1,10.2,10.2-38.1c-9.6-14.8-15.2-32.5-15.2-51.4,0-52.2,42.5-94.6,94.6-94.6s94.6,42.5,94.6,94.6-42.5,94.6-94.6,94.6h0Z"/>
  <path class="st0" d="M258,232.3c-1.6,2.5-3.4,4.8-6.1,7.6-6.1,6.1-14.5,9.1-23,8.2-15.3-1.6-37-10-55.7-28.7-18.7-18.7-27.1-40.4-28.7-55.7-.9-8.5,2.2-16.9,8.2-23,2.8-2.8,5.1-4.5,7.6-6.2,4.6-3.1,10.8-1,12.5,4.2l6.3,18.8c1.7,5.2.9,8.4-1.3,10.6l-5,5c-2.5,2.5-2.9,6.3-1,9.3,2.8,4.3,8,11.3,17.5,20.8,9.6,9.6,16.5,14.8,20.8,17.5,3,1.9,6.8,1.5,9.3-1l5-5c2.2-2.2,5.4-3,10.6-1.3l18.8,6.3c5.2,1.7,7.3,8,4.1,12.5h0Z"/>
</svg>